<?xml version="1.0" encoding="UTF-8" standalone="no"?>
<!-- Created with Inkscape (http://www.inkscape.org/) -->

<svg
   xmlns:osb="http://www.openswatchbook.org/uri/2009/osb"
   xmlns:dc="http://purl.org/dc/elements/1.1/"
   xmlns:cc="http://creativecommons.org/ns#"
   xmlns:rdf="http://www.w3.org/1999/02/22-rdf-syntax-ns#"
   xmlns:svg="http://www.w3.org/2000/svg"
   xmlns="http://www.w3.org/2000/svg"
   xmlns:sodipodi="http://sodipodi.sourceforge.net/DTD/sodipodi-0.dtd"
   xmlns:inkscape="http://www.inkscape.org/namespaces/inkscape"
   width="744.09448819"
   height="1052.3622047"
   id="svg2"
   version="1.1"
   inkscape:version="0.48.2 r9819"
   inkscape:export-filename="E:\Projects\Join-it\bitmap.png"
   inkscape:export-xdpi="90"
   inkscape:export-ydpi="90"
   sodipodi:docname="logo.svg">
  <defs
     id="defs4">
    <linearGradient
       id="linearGradient6380"
       osb:paint="solid">
      <stop
         style="stop-color:#000000;stop-opacity:1;"
         offset="0"
         id="stop6382" />
    </linearGradient>
    <inkscape:perspective
       sodipodi:type="inkscape:persp3d"
       inkscape:vp_x="-300 : 871.89538 : 1"
       inkscape:vp_y="0 : 1000 : 0"
       inkscape:vp_z="744.09448 : 526.18109 : 1"
       inkscape:persp3d-origin="372.04724 : 350.78739 : 1"
       id="perspective2985" />
  </defs>
  <sodipodi:namedview
     id="base"
     pagecolor="#ffffff"
     bordercolor="#666666"
     borderopacity="1.0"
     inkscape:pageopacity="0.0"
     inkscape:pageshadow="2"
     inkscape:zoom="1"
     inkscape:cx="254.51959"
     inkscape:cy="959.27775"
     inkscape:document-units="px"
     inkscape:current-layer="layer1"
     showgrid="false"
     inkscape:object-paths="true"
     inkscape:snap-bbox="true"
     inkscape:snap-midpoints="false"
     inkscape:window-width="1024"
     inkscape:window-height="712"
     inkscape:window-x="-4"
     inkscape:window-y="-4"
     inkscape:window-maximized="1"
     inkscape:snap-grids="true"
     inkscape:snap-to-guides="false"
     showguides="true"
     inkscape:guide-bbox="true">
    <sodipodi:guide
       orientation="0,1"
       position="427.5,749.5"
       id="guide6276" />
    <sodipodi:guide
       orientation="0,1"
       position="279.41797,770.42578"
       id="guide3014" />
  </sodipodi:namedview>
  <metadata
     id="metadata7">
    <rdf:RDF>
      <cc:Work
         rdf:about="">
        <dc:format>image/svg+xml</dc:format>
        <dc:type
           rdf:resource="http://purl.org/dc/dcmitype/StillImage" />
        <dc:title />
      </cc:Work>
    </rdf:RDF>
  </metadata>
  <g
     inkscape:label="Layer 1"
     inkscape:groupmode="layer"
     id="layer1">
    <flowRoot
       xml:space="preserve"
       id="flowRoot3021"
       style="fill:black;stroke:none;stroke-opacity:1;stroke-width:1px;stroke-linejoin:miter;stroke-linecap:butt;fill-opacity:1;font-family:Sans;font-style:normal;font-weight:normal;font-size:40px;line-height:125%;letter-spacing:0px;word-spacing:0px"><flowRegion
         id="flowRegion3023"><rect
           id="rect3025"
           width="94.285713"
           height="140"
           x="-11.428572"
           y="332.36218" /></flowRegion><flowPara
         id="flowPara3027" /></flowRoot>    <flowRoot
       xml:space="preserve"
       id="flowRoot3029"
       style="fill:black;stroke:none;stroke-opacity:1;stroke-width:1px;stroke-linejoin:miter;stroke-linecap:butt;fill-opacity:1;font-family:Sans;font-style:normal;font-weight:normal;font-size:40px;line-height:125%;letter-spacing:0px;word-spacing:0px"><flowRegion
         id="flowRegion3031"><rect
           id="rect3033"
           width="11.428572"
           height="48.57143"
           x="60"
           y="332.36218" /></flowRegion><flowPara
         id="flowPara3035" /></flowRoot>    <path
       inkscape:connector-curvature="0"
       id="path6411"
       style="font-size:68.05175018px;font-style:normal;font-variant:normal;font-weight:bold;font-stretch:normal;line-height:125%;letter-spacing:0px;word-spacing:0px;fill:#000000;fill-opacity:1;stroke:none;font-family:DejaVu Sans Mono;-inkscape-font-specification:DejaVu Sans Mono"
       d="m 31.224327,296.00633 0,-32.38768 c 5.507497,5.55581 11.383235,9.7858 17.627238,12.68989 6.243945,2.90417 12.535944,4.35625 18.876027,4.35625 7.428688,0 12.872146,-1.83086 16.330409,-5.49268 3.458134,-3.66173 5.187245,-9.50156 5.187309,-17.51962 l 0,-71.40433 -34.678104,0 0,-24.62222 63.016164,0 0,96.02655 c -1e-4,17.23554 -3.66643,29.56243 -10.99901,36.98067 -7.332753,7.41818 -19.420446,11.12733 -36.26311,11.12733 -6.083919,0 -12.439965,-0.82077 -19.068151,-2.46225 -6.628251,-1.64147 -13.304499,-4.07216 -20.028772,-7.29191 z" />
    <path
       inkscape:connector-curvature="0"
       id="path6413"
       style="font-size:68.05175018px;font-style:normal;font-variant:normal;font-weight:bold;font-stretch:normal;line-height:125%;letter-spacing:0px;word-spacing:0px;fill:#000000;fill-opacity:1;stroke:none;font-family:DejaVu Sans Mono;-inkscape-font-specification:DejaVu Sans Mono"
       d="m 198.2748,216.93116 c -6.72434,7e-5 -12.00771,2.92002 -15.8501,8.75985 -3.84249,5.8399 -5.76372,13.96837 -5.76368,24.3854 -4e-5,10.41719 1.92119,18.54565 5.76368,24.38548 3.84239,5.8399 9.12576,8.75985 15.8501,8.75978 6.78825,7e-5 12.10364,-2.91988 15.94616,-8.75978 3.84237,-5.83983 5.76359,-13.96829 5.76367,-24.38548 -8e-5,-10.41703 -1.9213,-18.5455 -5.76367,-24.3854 -3.84252,-5.83983 -9.15791,-8.75978 -15.94616,-8.75985 z m -49.75972,33.14525 c 0,-17.10913 4.49885,-30.66714 13.4966,-40.67397 8.9977,-10.00662 21.0854,-15.00989 36.26312,-15.01003 15.24164,1.4e-4 27.36135,5.00341 36.35917,15.01003 8.9976,10.00683 13.49645,23.56484 13.49657,40.67397 -1.2e-4,17.10935 -4.49897,30.6673 -13.49657,40.67398 -8.99782,10.00669 -20.33995,12.05326 -35.58159,12.05326 -15.17772,0 -28.043,-2.04657 -37.0407,-12.05326 -8.99775,-10.00668 -13.4966,-23.56463 -13.4966,-40.67398 z"
       sodipodi:nodetypes="cssccccccsscccssss" />
    <path
       inkscape:connector-curvature="0"
       id="path6417"
       style="font-size:68.05175018px;font-style:normal;font-variant:normal;font-weight:bold;font-stretch:normal;line-height:125%;letter-spacing:0px;word-spacing:0px;fill:#000000;fill-opacity:1;stroke:none;font-family:DejaVu Sans Mono;-inkscape-font-specification:DejaVu Sans Mono"
       d="m 478.67751,234.1667 0,68.84745 -27.95382,0 0,-64.5859 c -9e-5,-7.70226 -1.10477,-13.21065 -3.3141,-16.52524 -2.20951,-3.31452 -5.81178,-4.97178 -10.80691,-4.97185 -5.05927,7e-5 -9.0458,2.24136 -11.9596,6.72373 -2.91392,4.48266 -4.37085,10.70127 -4.3708,18.65606 l 0,60.7032 -27.95382,0 0,-106.0648 27.95382,0 0,15.90972 c 1.98523,-5.87139 5.37937,-10.41696 10.18249,-13.63693 4.803,-3.21968 10.59869,-4.82959 17.38709,-4.82973 10.18239,1.4e-4 17.86731,3.33044 23.05468,9.9909 5.18721,6.66075 7.78085,16.58852 7.78097,29.78339 z" />
    <path
       style="font-size:68.05175018px;font-style:normal;font-variant:normal;font-weight:bold;font-stretch:normal;line-height:125%;letter-spacing:0px;word-spacing:0px;fill:#000000;fill-opacity:1;stroke:none;font-family:DejaVu Sans Mono;-inkscape-font-specification:DejaVu Sans Mono"
       d="m 278.58729,196.94337 0,21.39498 27.47565,0 0,63.50928 -65.31097,0.22485 -42.52478,20.73026 194.99211,0.2143 -0.90084,-21.29582 -58.10424,0.12605 0,-84.90426 -55.62693,0 z"
       id="path6415"
       inkscape:connector-curvature="0"
       sodipodi:nodetypes="cccccccccccc" />
    <path
       inkscape:connector-curvature="0"
       id="path6419"
       style="font-size:68.05175018px;font-style:normal;font-variant:normal;font-weight:bold;font-stretch:normal;line-height:125%;letter-spacing:0px;word-spacing:0px;fill:#000000;fill-opacity:1;stroke:none;font-family:DejaVu Sans Mono;-inkscape-font-specification:DejaVu Sans Mono"
       d="m 523.05778,233.40913 60.61458,0 0,27.55788 -60.61458,0 z" />
    <path
       style="font-size:68.05175018px;font-style:normal;font-variant:normal;font-weight:bold;font-stretch:normal;line-height:125%;letter-spacing:0px;word-spacing:0px;fill:#000000;fill-opacity:1;stroke:none;font-family:DejaVu Sans Mono;-inkscape-font-specification:DejaVu Sans Mono"
       d="m 117.40044,161.55048 0,25.89918 177.91609,-0.22485 0,-25.44876 -177.91609,-0.22485 z m 222.0573,0.22485 0,25.44876 309.43796,-0.67527 0,-24.77313 -309.43796,0 z m 353.57917,0 0,24.77313 30.17817,-0.22485 0,117.10933 28.37649,0 0,-117.10933 36.25885,0 0,-24.32271 -94.81351,-0.22485 z"
       id="path6423"
       inkscape:connector-curvature="0" />
    <path
       inkscape:connector-curvature="0"
       style="font-size:68.05175018px;font-style:normal;font-variant:normal;font-weight:bold;font-stretch:normal;line-height:125%;letter-spacing:0px;word-spacing:0px;fill:#000000;fill-opacity:1;stroke:none;font-family:DejaVu Sans Mono;-inkscape-font-specification:DejaVu Sans Mono"
       d="m 633.6209,196.90518 0,21.39497 27.70086,0 0,63.50929 -35.1328,0 0,21.16976 98.19166,0 0,-21.16976 -34.90758,0 0,-84.90426 -55.85214,0 z"
       id="path6421" />
  </g>
</svg>
